<?xml version="1.0" encoding="UTF-8" standalone="no"?>
<!-- Copyright 2017 mathsisfun.com -->
<svg xmlns="http://www.w3.org/2000/svg" width="360" height="128.1" version="1.1">
<defs/>
<g transform="translate(-1585.0539,-1995.9129)">
<path style="color:black; overflow:visible; fill:#0169c9; stroke:#636466; stroke-width:0.15; stroke-linejoin:round;" d="m 1596.7,2008 c -3,-0.4 -6.5,-0.2 -9.2,-0.3 2.8,-2.7 0.6,4.6 1.3,6.4 -0.4,16.4 -1,33 -0.4,49.4 -0.8,-0.6 3.2,-0.1 4.3,-0.3 1.8,0.5 5.3,-1.3 4.3,2.2 -0,2.1 -4,0.4 -5.6,0.9 -2.9,0.5 -6.9,-0.2 -6.3,-4.1 -0.1,-18.8 0.2,-37.7 0.8,-56.5 2.7,-2.3 7.1,-0.5 10.4,-0.8 1.8,-0.4 0.1,2.4 0.4,3.1 z"/>
<path style="color:black; overflow:visible; fill:#0169c9; stroke:#636466; stroke-width:0.15; stroke-linejoin:round;" d="m 1665.3,2007.8 c 3,-0.3 6.5,-0.1 9.2,-0.2 -3,-2.4 -0.6,7 -1.5,9.2 0.3,15.1 -0,32.5 -0.5,46.4 -1.1,-0.3 -4.8,-0 -6.8,-0.2 -2.2,-1.4 -2.9,3.1 -1.2,3 3.5,-0.3 7.9,1.4 10.6,-1.2 1.5,-9.4 0.5,-19.2 1.1,-28.7 -0.1,-10.2 -0,-20.4 -0.1,-30.5 -2.6,-2.3 -7,-0.6 -10.4,-1 -1.7,-0.5 -0.2,2.5 -0.5,3.1 z"/>
<text x="1603.5" y="2058.8" style="font-family:'Comic Sans MS'; font-weight:900; font-size:22.3px; color:black; overflow:visible; fill:#fd3301; stroke-width:1.1;">c</text>
<text x="1603" y="2027.5" style="font-family:'Comic Sans MS'; font-weight:900; font-size:22.3px; color:black; overflow:visible; fill:#fd3301; stroke-width:1.1;">a</text>
<text x="1639.5" y="2027.5" style="font-family:'Comic Sans MS'; font-weight:900; font-size:22.3px; color:black; overflow:visible; fill:#fd3301; stroke-width:1.1;">b</text>
<text x="1638.1" y="2058.8" style="font-family:'Comic Sans MS'; font-weight:900; font-size:22.3px; color:black; overflow:visible; fill:#fd3301; stroke-width:1.1;">d</text>
<text x="1725.7" y="2048.5" style="font-family:'Comic Sans MS'; font-size:36.6px; color:black; overflow:visible; fill:#2d2d2d; stroke-width:1.1;">=</text>
<path style="color:black; overflow:visible; fill:#0169c9; stroke:#636466; stroke-width:0.15; stroke-linejoin:round;" d="m 1865.4,2008.6 c -3,-0.4 -6.5,-0.2 -9.2,-0.4 2.8,-2.7 0.7,4.4 1.3,6.2 -0.4,16.4 -0.9,33.5 -0.5,49.5 -0.5,-0.4 3.5,-0 4.7,-0.2 1.8,0.4 4.9,-1.1 3.9,2.2 -0,2.1 -4,0.4 -5.6,0.9 -2.9,0.5 -6.9,-0.2 -6.3,-4.1 -0.1,-18.8 0.2,-37.7 0.8,-56.5 2.7,-2.3 7.1,-0.5 10.4,-0.8 1.8,-0.4 0.1,2.4 0.4,3.1 z"/>
<path style="color:black; overflow:visible; fill:#0169c9; stroke:#636466; stroke-width:0.15; stroke-linejoin:round;" d="m 1933.9,2008.4 c 3,-0.3 6.5,-0.1 9.2,-0.2 -3,-2.4 -0.6,7 -1.5,9.2 0.2,15.4 0.3,31.6 -0.6,46.6 0.7,-0.7 -3.2,-0.1 -4.2,-0.3 -1.9,0.4 -5.3,-1.4 -4.3,2 -0,2.1 4,0.6 5.5,1.1 2.9,0.5 6.9,-0.2 6.4,-4 0.6,-18.8 0.5,-37.7 0.4,-56.5 -2.6,-2.3 -7,-0.6 -10.4,-1 -1.8,-0.4 -0.1,2.4 -0.5,3.1 z"/>
<text x="1868" y="2056.3" style="font-family:'Comic Sans MS'; font-weight:900; font-size:22.3px; color:black; overflow:visible; fill:#fd3301; stroke-width:1.1;">-c</text>
<text x="1873.9" y="2028" style="font-family:'Comic Sans MS'; font-weight:900; font-size:22.3px; color:black; overflow:visible; fill:#fd3301; stroke-width:1.1;">d</text>
<text x="1902.9" y="2028" style="font-family:'Comic Sans MS'; font-weight:900; font-size:22.3px; color:black; overflow:visible; fill:#fd3301; stroke-width:1.1;">-b</text>
<text x="1911.8" y="2056.3" style="font-family:'Comic Sans MS'; font-weight:900; font-size:22.3px; color:black; overflow:visible; fill:#fd3301; stroke-width:1.1;">a</text>
<text x="1774.4" y="2053.9" style="font-family:'Comic Sans MS'; font-weight:900; font-size:22.3px; color:black; overflow:visible; fill:#eec73e; stroke-width:1.1;">ad-bc</text>
<text x="1797.6" y="2028.7" style="font-family:'Comic Sans MS'; font-weight:900; font-size:22.3px; color:black; overflow:visible; fill:#666666; stroke-width:1.1;">1</text>
<path style="fill:#ff9900; stroke:#666666; stroke-width:2.24; stroke-linecap:round;" d="m 1774.9,2033.1 59.7,0"/>
<text x="1683.7" y="2016.5" style="font-family:'Comic Sans MS'; font-weight:900; font-size:27.1px; color:black; overflow:visible; fill:#0169c9; stroke-width:1.1;">-1</text>
<g transform="matrix(0.52075458,0,0,0.52075458,1722.7153,1900.6553)">
<g transform="matrix(0.39590496,-0.91829149,-0.91829149,-0.39590496,3428.9773,769.00327)">
<path style="color:black; overflow:visible; fill:#eec73e; stroke-width:1.1;" d="m -912.6,3166.2 c 7.5,-2.5 15.6,-0.7 23,1.3 5.6,1.7 11.2,3.2 16.7,5.3 -0.8,2.5 -1.7,5.1 -2.5,7.6 -6.9,-2.5 -13.9,-4.7 -21.1,-6.4 -4.4,-0.8 -9,-1.6 -13.3,-0.3 -0.9,-2.5 -1.9,-5 -2.8,-7.5 z"/>
<path style="color:black; overflow:visible; fill:#eec73e; stroke-width:1.1;" d="m -885,3149.1 c 1.1,6.1 4.4,11.6 7.7,16.8 2.1,3.1 4.4,6.1 6.7,9.1 -2.2,1.6 -4.3,3.1 -6.5,4.7 -5.6,-7.3 -11,-14.8 -14.2,-23.5 -0.2,-1.9 -3.5,-6.9 0,-6.6 2.1,-0.2 4.2,-0.3 6.3,-0.5 z"/>
</g>
<path style="color:black; overflow:visible; fill:#eec73e; stroke-width:1.1;" d="m 164.6,318.8 c -0.2,14.6 4.5,28.9 12,41.4 6.6,11.4 14.2,22.8 25.5,30.2 2.6,1 6.3,4.9 8.5,3.9 1.2,-2.1 2.4,-4.2 3.6,-6.2 -6.3,-3.1 -12.2,-7 -17,-12.3 -6.8,-7.5 -12,-16.4 -16.8,-25.2 -5.1,-9.8 -7.9,-20.8 -7.8,-31.9 -2.7,0 -5.3,0.1 -8,0.2 z"/>
</g>
<text x="1785.8" y="2122.6" style="font-family:'Comic Sans MS'; font-weight:900; font-size:22.3px; color:black; overflow:visible; fill:#eec73e; stroke-width:1.1;">determinant</text>
</g>
</svg>
